<?xml version="1.0" encoding="utf-8"?>
<svg xmlns="http://www.w3.org/2000/svg" style="margin: auto; background: rgb(241, 242, 243); display: block; shape-rendering: auto;" width="253" height="256" preserveAspectRatio="xMidYMid">
<style type="text/css">
  text {
    text-anchor: middle; font-size: 30px; opacity: 0;
  }
</style>
<g style="transform-origin:126.5px 128px;transform:scale(1)">
<g transform="translate(126.5,128)">
  <g transform="translate(0,0)"><g class="path" style="transform: matrix(0.01, 0, 0, 0.01, 0, 0); transform-origin: -101.25px -2.5352px; animation: 1s linear 0s 1 normal forwards running bounce-in-cb0e344d-59fd-49b4-af82-68d2736be3b6;"><path d="M21.42-10.86L21.42-10.86L21.42-10.86Q21.42-4.68 17.94-2.25L17.94-2.25L17.94-2.25Q14.73 0 9.12 0L9.12 0L0.63 0L0.63-0.57L2.61-0.57L2.61-20.43L0.63-20.43L0.63-21L9.90-21L9.90-21Q15.66-21 18.54-18.64L18.54-18.64L18.54-18.64Q21.42-16.29 21.42-10.86zM8.46-20.43L8.46-0.57L9.60-0.57L9.60-0.57Q12.63-0.57 13.93-2.71L13.93-2.71L13.93-2.71Q15.24-4.86 15.24-9.90L15.24-9.90L15.24-11.64L15.24-11.64Q15.24-18.39 12.66-19.77L12.66-19.77L12.66-19.77Q11.43-20.43 9.18-20.43L9.18-20.43L8.46-20.43" fill="#3c0f0f" stroke="none" stroke-width="none" transform="translate(-112.27500629425049,7.964794771830251)" style="fill: rgb(60, 15, 15);"></path></g><g class="path" style="transform: matrix(0.01, 0, 0, 0.01, 0, 0); transform-origin: -82.11px 0.674795px; animation: 1s linear 0.044s 1 normal forwards running bounce-in-cb0e344d-59fd-49b4-af82-68d2736be3b6;"><path d="M32.97-13.44L32.97-13.44L32.97-13.44Q31.86-13.44 31.02-12L31.02-12L31.02-12Q30.18-10.56 30.18-8.58L30.18-8.58L30.18-0.54L32.31-0.54L32.31 0L22.95 0L22.95-0.54L24.60-0.54L24.60-13.74L22.95-13.74L22.95-14.28L30.18-14.28L30.18-11.40L30.18-11.40Q30.57-12.93 31.68-13.75L31.68-13.75L31.68-13.75Q32.79-14.58 34.20-14.58L34.20-14.58L34.20-14.58Q35.61-14.58 36.49-13.79L36.49-13.79L36.49-13.79Q37.38-12.99 37.38-11.54L37.38-11.54L37.38-11.54Q37.38-10.08 36.72-9.30L36.72-9.30L36.72-9.30Q36.06-8.52 34.70-8.52L34.70-8.52L34.70-8.52Q33.33-8.52 32.69-9.42L32.69-9.42L32.69-9.42Q32.04-10.32 32.52-11.91L32.52-11.91L33.60-11.91L33.60-11.91Q34.35-13.44 32.97-13.44" fill="#3c0f0f" stroke="none" stroke-width="none" transform="translate(-112.27500629425049,7.964794771830251)" style="fill: rgb(249, 26, 16);"></path></g><g class="path" style="transform: matrix(0.01, 0, 0, 0.01, 0, 0); transform-origin: -69.99px -11.1752px; animation: 1s linear 0.088s 1 normal forwards running bounce-in-cb0e344d-59fd-49b4-af82-68d2736be3b6;"><path d="M42.21-16.35L42.21-16.35L42.21-16.35Q40.62-16.35 39.95-17.16L39.95-17.16L39.95-17.16Q39.27-17.97 39.27-19.17L39.27-19.17L39.27-19.17Q39.27-20.37 40.01-21.15L40.01-21.15L40.01-21.15Q40.74-21.93 42.24-21.93L42.24-21.93L42.24-21.93Q43.74-21.93 44.52-21.22L44.52-21.22L44.52-21.22Q45.30-20.52 45.30-19.21L45.30-19.21L45.30-19.21Q45.30-17.91 44.55-17.13L44.55-17.13L44.55-17.13Q43.80-16.35 42.21-16.35" fill="#3c0f0f" stroke="none" stroke-width="none" transform="translate(-112.27500629425049,7.964794771830251)" style="fill: rgb(228, 107, 67);"></path></g><g class="path" style="transform: matrix(0.01, 0, 0, 0.01, 0, 0); transform-origin: -70.08px 0.824795px; animation: 1s linear 0.132s 1 normal forwards running bounce-in-cb0e344d-59fd-49b4-af82-68d2736be3b6;"><path d="M37.68-13.74L37.68-14.28L45.03-14.28L45.03-0.54L46.71-0.54L46.71 0L37.80 0L37.80-0.54L39.45-0.54L39.45-13.74L37.68-13.74" fill="#3c0f0f" stroke="none" stroke-width="none" transform="translate(-112.27500629425049,7.964794771830251)" style="fill: rgb(237, 177, 149);"></path></g><g class="path" style="transform: matrix(0.01, 0, 0, 0.01, 0, 0); transform-origin: -63.75px 4.57479px; animation: 1s linear 0.176s 1 normal forwards running bounce-in-cb0e344d-59fd-49b4-af82-68d2736be3b6;"><path d="M47.01-14.28L54.54-14.28L54.54-2.58L54.54-2.58Q54.54 2.34 52.84 4.92L52.84 4.92L52.84 4.92Q51.15 7.50 47.31 7.50L47.31 7.50L47.31 7.50Q44.82 7.50 43.66 6.51L43.66 6.51L43.66 6.51Q42.51 5.52 42.51 4.20L42.51 4.20L42.51 4.20Q42.51 2.88 43.29 2.17L43.29 2.17L43.29 2.17Q44.07 1.47 45.24 1.47L45.24 1.47L45.24 1.47Q46.41 1.47 46.99 2.11L46.99 2.11L46.99 2.11Q47.58 2.76 47.58 3.54L47.58 3.54L47.58 3.54Q47.58 4.32 47.40 5.04L47.40 5.04L46.26 5.04L46.26 5.04Q45.78 5.85 46.13 6.42L46.13 6.42L46.13 6.42Q46.47 6.99 47.38 6.99L47.38 6.99L47.38 6.99Q48.30 6.99 48.63 5.96L48.63 5.96L48.63 5.96Q48.96 4.92 48.96 1.68L48.96 1.68L48.96-13.74L47.01-13.74L47.01-14.28" fill="#3c0f0f" stroke="none" stroke-width="none" transform="translate(-112.27500629425049,7.964794771830251)" style="fill: rgb(42, 167, 201);"></path></g><g class="path" style="transform: matrix(0.01, 0, 0, 0.01, 0, 0); transform-origin: -60.51px -11.1752px; animation: 1s linear 0.22s 1 normal forwards running bounce-in-cb0e344d-59fd-49b4-af82-68d2736be3b6;"><path d="M51.69-16.35L51.69-16.35L51.69-16.35Q50.10-16.35 49.42-17.16L49.42-17.16L49.42-17.16Q48.75-17.97 48.75-19.17L48.75-19.17L48.75-19.17Q48.75-20.37 49.48-21.15L49.48-21.15L49.48-21.15Q50.22-21.93 51.72-21.93L51.72-21.93L51.72-21.93Q53.22-21.93 54-21.22L54-21.22L54-21.22Q54.78-20.52 54.78-19.21L54.78-19.21L54.78-19.21Q54.78-17.91 54.03-17.13L54.03-17.13L54.03-17.13Q53.28-16.35 51.69-16.35" fill="#3c0f0f" stroke="none" stroke-width="none" transform="translate(-112.27500629425049,7.964794771830251)" style="fill: rgb(6, 98, 141);"></path></g><g class="path" style="transform: matrix(0.01, 0, 0, 0.01, 0, 0); transform-origin: -40.515px -2.55021px; animation: 1s linear 0.264s 1 normal forwards running bounce-in-cb0e344d-59fd-49b4-af82-68d2736be3b6;"><path d="M73.74-20.73L73.74-20.73L73.74-20.73Q69.09-20.73 69.09-11.76L69.09-11.76L69.09-9.39L69.09-9.39Q69.09-5.13 70.32-2.71L70.32-2.71L70.32-2.71Q71.55-0.30 73.95-0.30L73.95-0.30L73.95-0.30Q77.25-0.30 80.01-6.72L80.01-6.72L80.55-6.72L80.34-0.03L80.01-0.03L80.01-0.03Q79.83-0.36 79.68-0.49L79.68-0.49L79.68-0.49Q79.53-0.63 79.24-0.63L79.24-0.63L79.24-0.63Q78.96-0.63 77.07-0.16L77.07-0.16L77.07-0.16Q75.18 0.30 73.23 0.30L73.23 0.30L73.23 0.30Q68.34 0.30 65.66-2.34L65.66-2.34L65.66-2.34Q62.97-4.98 62.97-10.28L62.97-10.28L62.97-10.28Q62.97-15.57 65.77-18.45L65.77-18.45L65.77-18.45Q68.58-21.33 73.32-21.33L73.32-21.33L73.32-21.33Q75.15-21.33 76.91-20.86L76.91-20.86L76.91-20.86Q78.66-20.40 78.96-20.40L78.96-20.40L78.96-20.40Q79.26-20.40 79.41-20.54L79.41-20.54L79.41-20.54Q79.56-20.67 79.74-21L79.74-21L80.07-21L80.31-14.49L79.77-14.49L79.77-14.49Q78.42-17.52 76.99-19.13L76.99-19.13L76.99-19.13Q75.57-20.73 73.74-20.73" fill="#3c0f0f" stroke="none" stroke-width="none" transform="translate(-112.27500629425049,7.964794771830251)" style="fill: rgb(4, 40, 77);"></path></g><g class="path" style="transform: matrix(0.01, 0, 0, 0.01, 0, 0); transform-origin: -20.52px -3.2852px; animation: 1s linear 0.308s 1 normal forwards running bounce-in-cb0e344d-59fd-49b4-af82-68d2736be3b6;"><path d="M82.74-21.96L82.74-22.50L89.97-22.50L89.97-11.52L89.97-11.52Q90.45-12.90 91.44-13.74L91.44-13.74L91.44-13.74Q92.43-14.58 94.44-14.58L94.44-14.58L94.44-14.58Q99.09-14.58 99.09-9.57L99.09-9.57L99.09-0.54L100.77-0.54L100.77 0L92.28 0L92.28-0.54L93.51-0.54L93.51-10.29L93.51-10.29Q93.51-12.09 93.27-12.62L93.27-12.62L93.27-12.62Q93.03-13.14 92.40-13.14L92.40-13.14L92.40-13.14Q91.44-13.14 90.70-11.88L90.70-11.88L90.70-11.88Q89.97-10.62 89.97-8.82L89.97-8.82L89.97-0.54L91.26-0.54L91.26 0L82.74 0L82.74-0.54L84.39-0.54L84.39-21.96L82.74-21.96" fill="#3c0f0f" stroke="none" stroke-width="none" transform="translate(-112.27500629425049,7.964794771830251)" style="fill: rgb(60, 15, 15);"></path></g><g class="path" style="transform: matrix(0.01, 0, 0, 0.01, 0, 0); transform-origin: -2.97002px 0.974795px; animation: 1s linear 0.352s 1 normal forwards running bounce-in-cb0e344d-59fd-49b4-af82-68d2736be3b6;"><path d="M118.17-0.54L118.17 0L111.33 0L111-2.19L111-2.19Q110.52-0.99 109.58-0.34L109.58-0.34L109.58-0.34Q108.63 0.30 106.77 0.30L106.77 0.30L106.77 0.30Q102.12 0.30 102.12-4.71L102.12-4.71L102.12-13.74L100.44-13.74L100.44-14.28L107.70-14.28L107.70-3.99L107.70-3.99Q107.70-2.19 107.96-1.62L107.96-1.62L107.96-1.62Q108.21-1.05 108.98-1.05L108.98-1.05L108.98-1.05Q109.74-1.05 110.34-1.98L110.34-1.98L110.34-1.98Q110.94-2.91 110.94-4.56L110.94-4.56L110.94-13.74L109.56-13.74L109.56-14.28L116.52-14.28L116.52-0.54L118.17-0.54" fill="#3c0f0f" stroke="none" stroke-width="none" transform="translate(-112.27500629425049,7.964794771830251)" style="fill: rgb(249, 26, 16);"></path></g><g class="path" style="transform: matrix(0.01, 0, 0, 0.01, 0, 0); transform-origin: 15.075px -3.13521px; animation: 1s linear 0.396s 1 normal forwards running bounce-in-cb0e344d-59fd-49b4-af82-68d2736be3b6;"><path d="M124.86-6.21L124.86-6.21Q124.86-3.06 125.19-2.02L125.19-2.02L125.19-2.02Q125.52-0.99 126.41-0.99L126.41-0.99L126.41-0.99Q127.29-0.99 127.94-1.77L127.94-1.77L127.94-1.77Q128.58-2.55 128.58-4.08L128.58-4.08L128.58-10.62L128.58-10.62Q128.58-11.91 128.07-12.81L128.07-12.81L128.07-12.81Q127.56-13.71 126.57-13.71L126.57-13.71L126.57-13.71Q125.58-13.71 125.22-12.39L125.22-12.39L125.22-12.39Q124.86-11.07 124.86-7.77L124.86-7.77L124.86-6.21zM135.63 0L128.97 0L128.64-2.10L128.64-2.10Q127.62 0.30 124.50 0.30L124.50 0.30L124.50 0.30Q121.92 0.30 120.50-1.56L120.50-1.56L120.50-1.56Q119.07-3.42 119.07-7.11L119.07-7.11L119.07-7.11Q119.07-14.58 125.01-14.58L125.01-14.58L125.01-14.58Q127.65-14.58 128.49-13.11L128.49-13.11L128.49-21.96L126.66-21.96L126.66-22.50L134.16-22.50L134.16-0.54L135.63-0.54L135.63 0" fill="#3c0f0f" stroke="none" stroke-width="none" transform="translate(-112.27500629425049,7.964794771830251)" style="fill: rgb(228, 107, 67);"></path></g><g class="path" style="transform: matrix(0.01, 0, 0, 0.01, 0, 0); transform-origin: 32.37px 0.824795px; animation: 1s linear 0.44s 1 normal forwards running bounce-in-cb0e344d-59fd-49b4-af82-68d2736be3b6;"><path d="M143.61-7.05L143.61-7.05L144.48-7.05L144.48-9.36L144.48-9.36Q144.48-12.21 144.17-13.18L144.17-13.18L144.17-13.18Q143.85-14.16 142.95-14.16L142.95-14.16L142.95-14.16Q142.41-14.16 141.98-13.88L141.98-13.88L141.98-13.88Q141.54-13.59 141.54-13.09L141.54-13.09L141.54-13.09Q141.54-12.60 141.72-12.09L141.72-12.09L142.47-12.09L142.47-12.09Q142.71-11.46 142.71-10.57L142.71-10.57L142.71-10.57Q142.71-9.69 141.96-9.04L141.96-9.04L141.96-9.04Q141.21-8.40 140.07-8.40L140.07-8.40L140.07-8.40Q137.49-8.40 137.49-10.89L137.49-10.89L137.49-10.89Q137.49-14.58 143.76-14.58L143.76-14.58L143.76-14.58Q147.33-14.58 148.70-13.37L148.70-13.37L148.70-13.37Q150.06-12.15 150.06-8.91L150.06-8.91L150.06-2.82L150.06-2.82Q150.06-1.26 150.93-1.26L150.93-1.26L150.93-1.26Q151.95-1.26 152.13-4.35L152.13-4.35L152.58-4.32L152.58-4.32Q152.46-1.68 151.59-0.69L151.59-0.69L151.59-0.69Q150.72 0.30 148.74 0.30L148.74 0.30L148.74 0.30Q145.14 0.30 144.60-1.92L144.60-1.92L144.60-1.92Q144.21-0.78 143.43-0.24L143.43-0.24L143.43-0.24Q142.65 0.30 141.15 0.30L141.15 0.30L141.15 0.30Q136.71 0.30 136.71-3.33L136.71-3.33L136.71-3.33Q136.71-5.46 138.41-6.25L138.41-6.25L138.41-6.25Q140.10-7.05 143.61-7.05zM142.41-3.36L142.41-3.36Q142.41-1.80 142.58-1.35L142.58-1.35L142.58-1.35Q142.74-0.90 143.21-0.90L143.21-0.90L143.21-0.90Q143.67-0.90 144.08-1.67L144.08-1.67L144.08-1.67Q144.48-2.43 144.48-3.78L144.48-3.78L144.48-6.57L144.27-6.57L144.27-6.57Q142.41-6.57 142.41-3.84L142.41-3.84L142.41-3.36" fill="#3c0f0f" stroke="none" stroke-width="none" transform="translate(-112.27500629425049,7.964794771830251)" style="fill: rgb(237, 177, 149);"></path></g><g class="path" style="transform: matrix(0.01, 0, 0, 0.01, 0, 0); transform-origin: 47.01px 0.794795px; animation: 1s linear 0.484s 1 normal forwards running bounce-in-cb0e344d-59fd-49b4-af82-68d2736be3b6;"><path d="M153.93 0.30L153.57 0.30L153.57-5.07L153.93-5.07L153.93-5.07Q154.71-2.46 156.03-1.41L156.03-1.41L156.03-1.41Q157.35-0.36 159.33-0.36L159.33-0.36L159.33-0.36Q162.39-0.36 162.39-2.31L162.39-2.31L162.39-2.31Q162.39-3.15 161.64-3.57L161.64-3.57L161.64-3.57Q160.47-4.23 158.64-4.59L158.64-4.59L158.64-4.59Q156.60-5.13 155.22-6.03L155.22-6.03L155.22-6.03Q153.57-7.11 153.57-9.45L153.57-9.45L153.57-9.45Q153.57-11.79 155.01-13.18L155.01-13.18L155.01-13.18Q156.45-14.58 158.85-14.58L158.85-14.58L158.85-14.58Q160.32-14.58 161.88-13.89L161.88-13.89L161.88-13.89Q162.45-13.65 162.75-13.65L162.75-13.65L162.75-13.65Q163.05-13.65 163.26-13.86L163.26-13.86L163.26-13.86Q163.47-14.07 163.77-14.64L163.77-14.64L164.10-14.64L164.10-10.05L163.74-10.05L163.74-10.05Q162.21-13.95 159-13.95L159-13.95L159-13.95Q157.59-13.95 156.90-13.46L156.90-13.46L156.90-13.46Q156.21-12.96 156.21-12.21L156.21-12.21L156.21-12.21Q156.21-11.76 156.42-11.50L156.42-11.50L156.42-11.50Q156.63-11.25 156.75-11.13L156.75-11.13L156.75-11.13Q156.87-11.01 157.14-10.88L157.14-10.88L157.14-10.88Q157.41-10.74 157.59-10.66L157.59-10.66L157.59-10.66Q157.77-10.59 158.15-10.47L158.15-10.47L158.15-10.47Q158.52-10.35 158.70-10.32L158.70-10.32L158.70-10.32Q160.74-9.81 161.64-9.44L161.64-9.44L161.64-9.44Q162.54-9.06 163.35-8.52L163.35-8.52L163.35-8.52Q165-7.38 165-4.84L165-4.84L165-4.84Q165-2.31 163.50-1.00L163.50-1.00L163.50-1.00Q162 0.30 159.39 0.30L159.39 0.30L159.39 0.30Q157.53 0.30 155.79-0.57L155.79-0.57L155.79-0.57Q155.43-0.81 155.22-0.81L155.22-0.81L155.22-0.81Q154.56-0.81 153.93 0.30L153.93 0.30" fill="#3c0f0f" stroke="none" stroke-width="none" transform="translate(-112.27500629425049,7.964794771830251)" style="fill: rgb(42, 167, 201);"></path></g><g class="path" style="transform: matrix(0.01, 0, 0, 0.01, 0, 0); transform-origin: 61.86px 0.824795px; animation: 1s linear 0.528s 1 normal forwards running bounce-in-cb0e344d-59fd-49b4-af82-68d2736be3b6;"><path d="M173.10-7.05L173.10-7.05L173.97-7.05L173.97-9.36L173.97-9.36Q173.97-12.21 173.66-13.18L173.66-13.18L173.66-13.18Q173.34-14.16 172.44-14.16L172.44-14.16L172.44-14.16Q171.90-14.16 171.47-13.88L171.47-13.88L171.47-13.88Q171.03-13.59 171.03-13.09L171.03-13.09L171.03-13.09Q171.03-12.60 171.21-12.09L171.21-12.09L171.96-12.09L171.96-12.09Q172.20-11.46 172.20-10.57L172.20-10.57L172.20-10.57Q172.20-9.69 171.45-9.04L171.45-9.04L171.45-9.04Q170.70-8.40 169.56-8.40L169.56-8.40L169.56-8.40Q166.98-8.40 166.98-10.89L166.98-10.89L166.98-10.89Q166.98-14.58 173.25-14.58L173.25-14.58L173.25-14.58Q176.82-14.58 178.19-13.37L178.19-13.37L178.19-13.37Q179.55-12.15 179.55-8.91L179.55-8.91L179.55-2.82L179.55-2.82Q179.55-1.26 180.42-1.26L180.42-1.26L180.42-1.26Q181.44-1.26 181.62-4.35L181.62-4.35L182.07-4.32L182.07-4.32Q181.95-1.68 181.08-0.69L181.08-0.69L181.08-0.69Q180.21 0.30 178.23 0.30L178.23 0.30L178.23 0.30Q174.63 0.30 174.09-1.92L174.09-1.92L174.09-1.92Q173.70-0.78 172.92-0.24L172.92-0.24L172.92-0.24Q172.14 0.30 170.64 0.30L170.64 0.30L170.64 0.30Q166.20 0.30 166.20-3.33L166.20-3.33L166.20-3.33Q166.20-5.46 167.90-6.25L167.90-6.25L167.90-6.25Q169.59-7.05 173.10-7.05zM171.90-3.36L171.90-3.36Q171.90-1.80 172.07-1.35L172.07-1.35L172.07-1.35Q172.23-0.90 172.70-0.90L172.70-0.90L172.70-0.90Q173.16-0.90 173.57-1.67L173.57-1.67L173.57-1.67Q173.97-2.43 173.97-3.78L173.97-3.78L173.97-6.57L173.76-6.57L173.76-6.57Q171.90-6.57 171.90-3.84L171.90-3.84L171.90-3.36" fill="#3c0f0f" stroke="none" stroke-width="none" transform="translate(-112.27500629425049,7.964794771830251)" style="fill: rgb(6, 98, 141);"></path></g><g class="path" style="transform: matrix(0.01, 0, 0, 0.01, 0, 0); transform-origin: 83.19px 0.674795px; animation: 1s linear 0.572s 1 normal forwards running bounce-in-cb0e344d-59fd-49b4-af82-68d2736be3b6;"><path d="M182.37-13.74L182.37-14.28L189.60-14.28L189.60-11.52L189.60-11.52Q190.59-14.58 193.97-14.58L193.97-14.58L193.97-14.58Q197.34-14.58 198.06-11.34L198.06-11.34L198.06-11.34Q199.11-14.58 202.47-14.58L202.47-14.58L202.47-14.58Q206.88-14.58 206.88-9.57L206.88-9.57L206.88-0.54L208.56-0.54L208.56 0L200.25 0L200.25-0.54L201.30-0.54L201.30-10.29L201.30-10.29Q201.30-12.57 200.91-12.96L200.91-12.96L200.91-12.96Q200.73-13.14 200.43-13.14L200.43-13.14L200.43-13.14Q199.56-13.14 198.90-11.97L198.90-11.97L198.90-11.97Q198.24-10.80 198.24-9L198.24-9L198.24-0.54L199.32-0.54L199.32 0L191.61 0L191.61-0.54L192.66-0.54L192.66-10.29L192.66-10.29Q192.66-12.57 192.27-12.96L192.27-12.96L192.27-12.96Q192.09-13.14 191.79-13.14L191.79-13.14L191.79-13.14Q190.95-13.14 190.28-11.87L190.28-11.87L190.28-11.87Q189.60-10.59 189.60-8.82L189.60-8.82L189.60-0.54L190.68-0.54L190.68 0L182.37 0L182.37-0.54L184.02-0.54L184.02-13.74L182.37-13.74" fill="#3c0f0f" stroke="none" stroke-width="none" transform="translate(-112.27500629425049,7.964794771830251)" style="fill: rgb(4, 40, 77);"></path></g><g class="path" style="transform: matrix(0.01, 0, 0, 0.01, 0, 0); transform-origin: 104.97px 0.824795px; animation: 1s linear 0.616s 1 normal forwards running bounce-in-cb0e344d-59fd-49b4-af82-68d2736be3b6;"><path d="M216.21-7.05L216.21-7.05L217.08-7.05L217.08-9.36L217.08-9.36Q217.08-12.21 216.77-13.18L216.77-13.18L216.77-13.18Q216.45-14.16 215.55-14.16L215.55-14.16L215.55-14.16Q215.01-14.16 214.58-13.88L214.58-13.88L214.58-13.88Q214.14-13.59 214.14-13.09L214.14-13.09L214.14-13.09Q214.14-12.60 214.32-12.09L214.32-12.09L215.07-12.09L215.07-12.09Q215.31-11.46 215.31-10.57L215.31-10.57L215.31-10.57Q215.31-9.69 214.56-9.04L214.56-9.04L214.56-9.04Q213.81-8.40 212.67-8.40L212.67-8.40L212.67-8.40Q210.09-8.40 210.09-10.89L210.09-10.89L210.09-10.89Q210.09-14.58 216.36-14.58L216.36-14.58L216.36-14.58Q219.93-14.58 221.30-13.37L221.30-13.37L221.30-13.37Q222.66-12.15 222.66-8.91L222.66-8.91L222.66-2.82L222.66-2.82Q222.66-1.26 223.53-1.26L223.53-1.26L223.53-1.26Q224.55-1.26 224.73-4.35L224.73-4.35L225.18-4.32L225.18-4.32Q225.06-1.68 224.19-0.69L224.19-0.69L224.19-0.69Q223.32 0.30 221.34 0.30L221.34 0.30L221.34 0.30Q217.74 0.30 217.20-1.92L217.20-1.92L217.20-1.92Q216.81-0.78 216.03-0.24L216.03-0.24L216.03-0.24Q215.25 0.30 213.75 0.30L213.75 0.30L213.75 0.30Q209.31 0.30 209.31-3.33L209.31-3.33L209.31-3.33Q209.31-5.46 211.01-6.25L211.01-6.25L211.01-6.25Q212.70-7.05 216.21-7.05zM215.01-3.36L215.01-3.36Q215.01-1.80 215.18-1.35L215.18-1.35L215.18-1.35Q215.34-0.90 215.81-0.90L215.81-0.90L215.81-0.90Q216.27-0.90 216.68-1.67L216.68-1.67L216.68-1.67Q217.08-2.43 217.08-3.78L217.08-3.78L217.08-6.57L216.87-6.57L216.87-6.57Q215.01-6.57 215.01-3.84L215.01-3.84L215.01-3.36" fill="#3c0f0f" stroke="none" stroke-width="none" transform="translate(-112.27500629425049,7.964794771830251)" style="fill: rgb(60, 15, 15);"></path></g></g>
</g>
</g>
<style id="bounce-in-cb0e344d-59fd-49b4-af82-68d2736be3b6" data-anikit="">@keyframes bounce-in-cb0e344d-59fd-49b4-af82-68d2736be3b6
{
  0% {
    animation-timing-function: cubic-bezier(0.0383,0.3388,0.0421,0.6652);
    transform: matrix(0.01,0,0,0.01,0,0);
    opacity: 1;
  }
  4.7% {
    animation-timing-function: cubic-bezier(0.3296,0.3336,0.5772,0.6672);
    transform: matrix(0.556,0,0,0.556,0,0);
    opacity: 1;
  }
  8.4% {
    animation-timing-function: cubic-bezier(0.0781,0.1617,0.0874,0.9301);
    transform: matrix(0.979,0,0,0.979,0,0);
    opacity: 1;
  }
  12.4% {
    animation-timing-function: cubic-bezier(0.8341,0.1496,0.8634,0.7673);
    transform: matrix(1.153,0,0,1.153,0,0);
    opacity: 1;
  }
  16.3% {
    animation-timing-function: cubic-bezier(0.3264,0.3332,0.5758,0.6695);
    transform: matrix(1.008,0,0,1.008,0,0);
    opacity: 1;
  }
  21.2% {
    animation-timing-function: cubic-bezier(0.0921,0.1883,0.3277,1);
    transform: matrix(0.704,0,0,0.704,0,0);
    opacity: 1;
  }
  24.5% {
    animation-timing-function: cubic-bezier(0.6905,0.0944,0.8759,0.7624);
    transform: matrix(0.626,0,0,0.626,0,0);
    opacity: 1;
  }
  27.7% {
    animation-timing-function: cubic-bezier(0.3688,0.332,0.624,0.6684);
    transform: matrix(0.704,0,0,0.704,0,0);
    opacity: 1;
  }
  32.6% {
    animation-timing-function: cubic-bezier(0.1368,0.2364,0.2451,0.9049);
    transform: matrix(0.958,0,0,0.958,0,0);
    opacity: 1;
  }
  37.4% {
    animation-timing-function: cubic-bezier(0.5936,0.0846,0.3495,1);
    transform: matrix(1.085,0,0,1.085,0,0);
    opacity: 1;
  }
  49.5% {
    animation-timing-function: cubic-bezier(0.5522,0.0981,0.3807,1);
    transform: matrix(0.802,0,0,0.802,0,0);
    opacity: 1;
  }
  62.4% {
    animation-timing-function: cubic-bezier(0.4497,0.1349,0.4911,1);
    transform: matrix(1.044,0,0,1.044,0,0);
    opacity: 1;
  }
  74.1% {
    animation-timing-function: cubic-bezier(0.429,0,0.5239,1);
    transform: matrix(0.914,0,0,0.914,0,0);
    opacity: 1;
  }
  87% {
    animation-timing-function: cubic-bezier(0.3501,0,0.6422,1);
    transform: matrix(1.013,0,0,1.013,0,0);
    opacity: 1;
  }
  95.8% {
    animation-timing-function: cubic-bezier(0.3653,0,0.6776,1);
    transform: matrix(0.992,0,0,0.992,0,0);
    opacity: 1;
  }
  100% {
    transform: matrix(1,0,0,1,0,0);
    opacity: 1;
  }
}</style></svg>